<?xml version="1.0" encoding="UTF-8"?><svg xmlns="http://www.w3.org/2000/svg" viewBox="0 0 180 180"><defs><style>.cls-1{fill:#fff;}.cls-2{fill:#fafafa;}.cls-3{isolation:isolate;}.cls-4{fill:#101820;mix-blend-mode:multiply;}</style></defs><g class="cls-3"><g id="Layer_2"><rect class="cls-2" width="180" height="180"/></g><g id="Layer_1"><g><path class="cls-4" d="M179.4,10c0-1.59-1.33-2.86-2.92-2.8-40.59,1.39-80.65,17.52-108.39,43.16-.37,.34-.92,.38-1.33,.1C47.62,37.41,28.16,31.85,3.62,30.16c-1.63-.12-3.02,1.17-3.02,2.79V170.13c0,1.48,1.22,2.67,2.72,2.67H176.76c1.47,0,2.64-1.22,2.64-2.67V10Z"/><g><path class="cls-1" d="M64.5,80.61c-2.45,0-4.16-1.65-4.16-4.01s1.71-4.01,4.16-4.01,4.16,1.65,4.16,4.01-1.71,4.01-4.16,4.01"/><path class="cls-1" d="M121.17,102.37c-1.39,0-1.56-.98-1.56-1.71v-13.45c0-1.52,0-2.73-.46-3.53-.49-.84-1.49-1.21-3.26-1.21-2.8,0-5.63,.91-5.63,2.94,0,.97,.44,1.19,.94,1.44,.6,.3,1.28,.64,1.28,2.25v7.25c0,2.42,0,5.74-3.16,5.74s-3.08-3.31-3.08-5.97v-8.71c0-3.18,0-4.93-3.76-4.93-2.8,0-5.63,.91-5.63,2.94,0,.97,.44,1.19,.96,1.44,.61,.3,1.31,.64,1.31,2.25v10.69c0,5.06,2.22,7.74,6.41,7.74,2.54,0,4.55-.95,5.88-2.84,.41-.58,.55-.87,.87-.87s.5,.27,.73,.77c.96,2.01,2.51,2.95,4.74,2.95,3.11,0,5.12-1.45,5.12-3.7,0-1.09-.44-1.45-1.73-1.45"/><path class="cls-1" d="M134.6,147.49c-3.04,0-3.91-1.25-4.67-2.81-.15-.31-.35-.63-.66-.63-.25,0-.52,.2-.87,.64-1.59,1.98-3.18,2.79-5.71,2.79-4.92,0-7.9-4.64-7.9-12.16,0-8.09,3.1-12.93,8.29-12.93,2.37,0,4.1,.85,5.3,2.67,.2,.31,.34,.47,.56,.47,.18,0,.38-.12,.38-.69v-4.52c0-1.46-.88-1.94-1.66-2.36-.7-.38-1.3-.7-1.3-1.64,0-1.84,2.25-2.94,6.03-2.94,3.38,0,4.06,1.74,4.06,4.56v22.66c0,1.22,.5,1.71,1.71,1.71s1.57,.38,1.57,1.45c0,2.21-2.06,3.7-5.12,3.7m-8.52-20.02c-2.57,0-3.98,2.57-3.98,7.24s1.48,7.57,4.18,7.57c1.88,0,3.04-1.49,3.04-3.9v-7.66c0-1.92-1.33-3.26-3.24-3.26"/><path class="cls-1" d="M106.65,120.59c-2.45,0-4.16-1.65-4.16-4.01s1.71-4.01,4.16-4.01,4.16,1.65,4.16,4.01-1.71,4.01-4.16,4.01"/><path class="cls-1" d="M108.5,147.49c-3.78,0-5.24-1.35-5.24-4.5v-13.77c0-1.61-.66-1.95-1.24-2.25-.49-.25-.91-.47-.91-1.44,0-2.03,2.77-2.94,5.51-2.94,3.4,0,3.76,1.39,3.76,4.56v13.48c0,1.23,.49,1.71,1.75,1.71,1.12,0,1.53,.39,1.53,1.45,0,2.28-1.98,3.7-5.16,3.7"/><path class="cls-1" d="M66.35,107.52c-3.78,0-5.24-1.35-5.24-4.5v-13.77c0-1.61-.66-1.95-1.24-2.25-.49-.25-.91-.47-.91-1.44,0-2.03,2.77-2.94,5.52-2.94,3.4,0,3.76,1.39,3.76,4.56v13.48c0,1.23,.49,1.71,1.75,1.71,1.12,0,1.53,.39,1.53,1.45,0,2.28-1.98,3.7-5.16,3.7"/><path class="cls-1" d="M96.38,147.49c-2.68,0-3.89-1.45-4.63-2.77-.16-.29-.35-.58-.64-.58-.24,0-.52,.2-.91,.68-1.45,1.75-2.83,2.68-5.58,2.68-3.91,0-6.34-2.45-6.34-6.4,0-5.11,4.21-6.79,8.52-8.09,3-.91,4.18-.8,4.18-3.9,0-1.97-.9-3.06-2.53-3.06s-2.62,.99-3.16,2.96c-.58,2.21-2.17,2.68-3.41,2.68-1.97,0-3.06-1.06-3.06-2.99s1.04-3.51,3-4.65c1.78-1.03,4.2-1.6,6.81-1.6,6.15,0,9.27,2.84,9.27,8.43v9.76c0,1.25,.48,1.7,1.83,1.7,1.07,0,1.53,.46,1.53,1.54,0,2.17-1.96,3.63-4.89,3.63m-6.34-11.7c-.28,0-.64,.07-1.11,.21-2.22,.65-3.44,1.97-3.44,3.71,0,2,1.31,2.72,2.53,2.72,1.48,0,2.96-.77,2.96-2.49v-2.88c0-.66-.11-1.27-.95-1.27"/><path class="cls-1" d="M149.25,107.52c-6.66,0-10.48-4.64-10.48-12.72,0-7.61,4.12-12.34,10.75-12.34,3.01,0,5.45,.96,7.05,2.78,1.33,1.52,2.06,3.6,2.06,5.88,0,1.4-.84,2.36-2.8,3.21l-8.31,3.65c-.64,.27-.61,.71-.53,1.02,.46,1.97,2,3.06,4.33,3.06,1.73,0,3.36-.52,5.1-1.64,.64-.43,1.04-.6,1.42-.6,.28,0,1.18,.1,1.18,1.36,0,2.14-2.95,6.34-9.77,6.34m-.43-20.91c-1.99,0-3,1.92-3,5.71,0,.62,0,1.91,.97,1.91,.23,0,.5-.07,.82-.22l1.8-.81c1.56-.71,2.37-1.17,2.37-2.85,0-1.8-.93-3.74-2.96-3.74"/><path class="cls-1" d="M51.75,107.52c-4.23,0-6.85-.43-6.85-2.54,0-1.23,.65-1.58,1.4-1.98,.8-.43,1.71-.92,1.71-2.63v-14.66c0-.55-.27-.59-.35-.59-.19,0-.38,.18-.48,.44l-5.52,14.77c-.68,1.78-1.46,2.12-2.67,2.12-1.54,0-2.12-.44-2.79-2.16l-5.6-14.73c-.09-.25-.27-.4-.45-.4s-.38,.17-.38,.56v14.66c0,1.74,1.17,2.26,2.2,2.72,.93,.41,1.74,.77,1.74,1.89,0,2.04-1.29,2.54-6.55,2.54-4.69,0-6.2-.62-6.2-2.54,0-1.22,.75-1.57,1.62-1.98,.92-.43,1.97-.92,1.97-2.63v-18.45c0-1.73-.87-2.28-1.64-2.77-.69-.44-1.29-.82-1.29-1.96,0-1.97,1.64-2.78,5.67-2.78,6.78,0,7.72,.22,9.08,3.95l3.86,10.84c.13,.35,.29,.43,.4,.43s.28-.07,.4-.43l3.83-10.84c1.29-3.66,2.26-3.95,7.12-3.95,4,0,5.94,.91,5.94,2.78,0,1.12-.51,1.49-1.1,1.92-.64,.47-1.36,1-1.36,2.61v18.64c0,1.74,.98,2.26,1.84,2.71,.78,.41,1.45,.77,1.45,1.9,0,1.97-1.58,2.54-7.03,2.54"/><path class="cls-1" d="M69.99,147.49c-4.23,0-6.85-.43-6.85-2.54,0-1.23,.65-1.58,1.4-1.98,.8-.43,1.71-.92,1.71-2.63v-14.66c0-.55-.27-.59-.35-.59-.19,0-.38,.18-.48,.44l-5.52,14.77c-.68,1.78-1.46,2.12-2.67,2.12-1.54,0-2.12-.44-2.79-2.16l-5.6-14.73c-.09-.25-.27-.4-.45-.4s-.38,.17-.38,.56v14.66c0,1.74,1.17,2.26,2.2,2.72,.93,.41,1.74,.77,1.74,1.89,0,2.04-1.29,2.54-6.55,2.54-4.69,0-6.2-.62-6.2-2.54,0-1.22,.75-1.57,1.62-1.98,.92-.43,1.97-.92,1.97-2.63v-18.45c0-1.73-.87-2.28-1.64-2.77-.69-.44-1.29-.82-1.29-1.96,0-1.97,1.64-2.78,5.67-2.78,6.78,0,7.72,.22,9.08,3.95l3.86,10.84c.13,.35,.29,.43,.4,.43s.28-.07,.4-.43l3.83-10.84c1.29-3.66,2.26-3.95,7.12-3.95,4,0,5.94,.91,5.94,2.78,0,1.12-.51,1.49-1.1,1.92-.64,.47-1.36,1-1.36,2.61v18.64c0,1.74,.98,2.26,1.84,2.71,.78,.41,1.45,.77,1.45,1.9,0,1.97-1.58,2.54-7.03,2.54"/><path class="cls-1" d="M92.02,107.52c-3.67,0-5.24-1.35-5.24-4.5v-9.46c0-2.36,0-5.58-3.08-5.58-2.89,0-2.89,3.45-2.89,5.74v6.25c0,3,.6,3.28,.6,4.6,0,1.96-1.32,2.95-4.08,2.95-2.53,0-3.64-1.29-3.64-3.56v-14.71c0-1.61-.66-1.95-1.24-2.25-.49-.25-.91-.47-.91-1.44,0-2.15,3.2-2.94,5.36-2.94,3.35,0,3.72,.96,3.72,3.1,0,.34,.16,.55,.38,.55,.17,0,.34-.12,.49-.33,1.56-2.4,3.56-3.48,6.31-3.48,3.93,0,6.1,2.74,6.1,7.7v10.49c0,1.23,.49,1.71,1.75,1.71,1.12,0,1.53,.39,1.53,1.45,0,2.28-1.98,3.7-5.16,3.7"/><path class="cls-1" d="M131.97,107.52c-4.6,0-6.56-2.17-6.56-7.26v-11.16c0-.78-.27-1.05-1.02-1.05h-.94c-.83,0-1.68-.29-1.68-2.42,0-2,.69-2.85,2.31-2.85h.75c.64,0,.9-.27,.9-.93v-2.09c0-2.6,1.6-3.92,4.77-3.92,1.61,0,2.03,.6,2.03,2.94v3.1c0,.62,.3,.9,.97,.9h2.54c1.24,0,1.79,.56,1.79,1.81,0,1.72-.71,3.46-2.29,3.46h-1.78c-1.04,0-1.23,.37-1.23,1.42v8.05c0,2.21,0,4.29,2.31,4.29,.62,0,.98-.12,1.55-.12,1.02,0,1.68,.71,1.68,1.81,0,2.18-2.79,4.02-6.09,4.02"/><path class="cls-1" d="M142.03,136.19c.3,.18,.54,.42,.72,.72,.18,.3,.26,.63,.26,1s-.09,.69-.26,1c-.18,.3-.42,.54-.72,.72-.3,.18-.64,.26-1,.26s-.69-.09-1-.26-.54-.42-.72-.72c-.18-.3-.26-.63-.26-1s.09-.69,.26-1c.18-.3,.42-.54,.72-.72,.3-.18,.64-.26,1-.26s.69,.09,1,.26Zm-.16,3.16c.25-.15,.45-.35,.6-.6,.15-.25,.22-.53,.22-.84s-.07-.59-.22-.84c-.15-.25-.35-.45-.6-.6-.25-.15-.53-.22-.83-.22s-.58,.07-.83,.22c-.25,.15-.45,.35-.6,.6-.15,.25-.22,.53-.22,.84s.07,.59,.22,.84,.35,.45,.6,.6c.25,.15,.53,.22,.83,.22s.58-.07,.83-.22Zm-.1-1.49c-.07,.09-.16,.16-.28,.19l.5,.74h-.41l-.46-.71h-.47v.71h-.36v-1.81h1c.17,0,.31,.05,.42,.16s.16,.23,.16,.39c0,.13-.03,.24-.1,.33Zm-1.12-.57v.48h.58c.08,0,.15-.02,.2-.07,.05-.04,.07-.1,.07-.18s-.02-.13-.07-.18c-.05-.04-.11-.06-.2-.06h-.58Z"/></g></g></g></g></svg>