<?xml version="1.0" encoding="UTF-8"?><svg xmlns="http://www.w3.org/2000/svg" viewBox="0 0 180 180"><defs><style>.cls-1{fill:#860063;}.cls-2,.cls-3{fill:#fff;}.cls-4{fill:#fafafa;}.cls-5{fill:#7d260d;}.cls-6{fill:#101559;}.cls-7{fill:#ffe624;}.cls-8{fill:#009482;}.cls-3{font-family:GothamRounded-Bold, 'Gotham Rounded';font-size:4.45px;}.cls-9{fill:#fcd829;}</style></defs><g id="Layer_2"><rect class="cls-4" width="180" height="180"/></g><g id="Layer_1"><g><g><path class="cls-5" d="M90,4.45l.34,5.46c.35,5.54,8.32,6.05,9.36,.59l1.02-5.37-.34,5.46c-.35,5.54,7.49,7.04,9.21,1.76l1.69-5.2-1.03,5.37c-1.04,5.46,6.55,7.92,8.92,2.9l2.33-4.95-1.69,5.2c-1.72,5.28,5.51,8.68,8.48,3.99l2.93-4.62-2.33,4.95c-2.37,5.03,4.38,9.3,7.92,5.02l3.48-4.21-2.93,4.62c-2.98,4.69,3.17,9.78,7.22,5.98l3.99-3.74-3.49,4.21c-3.54,4.28,1.92,10.1,6.42,6.83l4.42-3.22-3.99,3.74c-4.05,3.8,.64,10.26,5.51,7.58l4.79-2.64-4.42,3.21c-4.49,3.26-.65,10.26,4.52,8.22l5.08-2.01-4.79,2.63c-4.87,2.67-1.93,10.1,3.45,8.72l5.3-1.36-5.08,2.01c-5.17,2.04-3.18,9.78,2.33,9.08l5.43-.69-5.3,1.36c-5.38,1.38-4.38,9.3,1.17,9.3h5.47l-5.43,.68c-5.51,.69-5.51,8.68,0,9.37l5.43,.68h-5.47c-5.56,0-6.56,7.92-1.17,9.3l5.3,1.36-5.43-.69c-5.51-.7-7.5,7.04-2.33,9.08l5.08,2.01-5.3-1.36c-5.38-1.38-8.32,6.04-3.45,8.72l4.79,2.63-5.08-2.01c-5.16-2.05-9.01,4.95-4.52,8.22l4.42,3.21-4.79-2.64c-4.87-2.68-9.56,3.78-5.51,7.58l3.99,3.74-4.42-3.22c-4.49-3.27-9.96,2.55-6.42,6.83l3.49,4.21-3.99-3.74c-4.05-3.8-10.2,1.29-7.22,5.98l2.93,4.62-3.48-4.21c-3.54-4.28-10.28,0-7.92,5.02l2.33,4.95-2.93-4.62c-2.98-4.69-10.2-1.29-8.48,3.99l1.69,5.2-2.33-4.95c-2.36-5.03-9.96-2.56-8.92,2.9l1.03,5.37-1.69-5.2c-1.72-5.28-9.56-3.79-9.21,1.76l.34,5.46-1.02-5.37c-1.04-5.46-9.01-4.96-9.36,.59l-.34,5.46-.34-5.46c-.35-5.54-8.32-6.05-9.36-.59l-1.02,5.37,.34-5.46c.35-5.54-7.49-7.04-9.21-1.76l-1.69,5.2,1.03-5.37c1.04-5.46-6.55-7.92-8.92-2.9l-2.33,4.95,1.69-5.2c1.72-5.28-5.51-8.68-8.48-3.99l-2.93,4.62,2.33-4.95c2.37-5.03-4.38-9.3-7.92-5.02l-3.48,4.21,2.93-4.62c2.98-4.69-3.17-9.78-7.22-5.98l-3.99,3.74,3.49-4.21c3.54-4.28-1.92-10.1-6.42-6.83l-4.42,3.22,3.99-3.74c4.05-3.8-.64-10.26-5.51-7.58l-4.79,2.64,4.42-3.21c4.49-3.26,.65-10.26-4.52-8.22l-5.08,2.01,4.79-2.63c4.87-2.67,1.93-10.1-3.45-8.72l-5.3,1.36,5.08-2.01c5.17-2.04,3.18-9.78-2.33-9.08l-5.43,.69,5.3-1.36c5.38-1.38,4.38-9.3-1.17-9.3H4.62l5.43-.68c5.51-.69,5.51-8.68,0-9.37l-5.43-.68h5.47c5.56,0,6.56-7.92,1.17-9.3l-5.3-1.36,5.43,.69c5.51,.7,7.5-7.04,2.33-9.08l-5.08-2.01,5.3,1.36c5.38,1.38,8.32-6.04,3.45-8.72l-4.79-2.63,5.08,2.01c5.16,2.05,9.01-4.95,4.52-8.22l-4.42-3.21,4.79,2.64c4.87,2.68,9.56-3.78,5.51-7.58l-3.99-3.74,4.42,3.22c4.49,3.27,9.96-2.55,6.42-6.83l-3.49-4.21,3.99,3.74c4.05,3.8,10.2-1.29,7.22-5.98l-2.93-4.62,3.48,4.21c3.54,4.28,10.28,0,7.92-5.02l-2.33-4.95,2.93,4.62c2.98,4.69,10.2,1.29,8.48-3.99l-1.69-5.2,2.33,4.95c2.36,5.03,9.96,2.56,8.92-2.9l-1.03-5.37,1.69,5.2c1.72,5.28,9.56,3.79,9.21-1.76l-.34-5.46,1.02,5.37c1.04,5.46,9.01,4.96,9.36-.59l.34-5.46Z"/><path class="cls-8" d="M89.87,164.96c-41.35,0-74.98-33.64-74.98-74.98S48.52,14.99,89.87,14.99s74.98,33.64,74.98,74.98-33.64,74.98-74.98,74.98Z"/><circle class="cls-1" cx="89.87" cy="89.98" r="57.51"/><g><g><path class="cls-6" d="M91.48,86.24c-1.18,0-2.21-.44-2.91-1.25-.54-.62-1.13-1.73-.88-3.54l4.82-37.95c.44-2.82,2.15-4.74,4.83-5.47l4.53-1.24c.66-.18,1.25-.27,1.8-.27,1.4,0,2.27,.58,2.78,1.11,1.81-1.91,4.39-3.81,7.98-4.8,1.37-.38,2.67-.57,3.85-.57,2.46,0,4.5,.79,6.05,2.31,.35-.49,.74-1.01,1.18-1.54,2.1-2.6,5.5-4.74,9.1-5.73,1.42-.39,2.75-.58,3.96-.58,2.95,0,5.33,1.17,6.88,3.4,2,2.68,2.7,6.47,2.09,11.52l-3.26,25.78c-.38,2.84-2.36,5.21-4.95,5.91l-5.87,1.61c-.48,.13-.95,.2-1.4,.2-1.19,0-2.25-.47-2.99-1.31-.83-.95-1.17-2.3-.97-3.79l2.96-23.17c.3-2.2,.1-3.15-.02-3.48-.1,0-.22,.03-.38,.07-1.12,.31-1.48,.64-1.8,1.19-.65,1.02-.69,1.13-1.2,2.38l-.07,.18c-.32,1.05-.53,2.11-.64,3.14l-2.86,22.64c-.38,2.8-2.36,5.15-4.95,5.86l-5.87,1.61c-.48,.13-.95,.2-1.4,.2-1.19,0-2.25-.47-2.99-1.31-.83-.95-1.17-2.3-.97-3.79l2.97-23.17c.24-2.2,.02-3.14-.1-3.46-.08,.01-.17,.03-.3,.06-2.53,.69-3.28,4.1-3.49,5.53l-3.14,24.38c-.44,2.86-2.13,4.73-4.89,5.49l-5.93,1.62c-.55,.15-1.07,.23-1.57,.23Z"/><path class="cls-6" d="M39.07,150.41c-3.24,0-5.44-.99-6.53-2.93-1.63-2.91,.27-6.45,.69-7.15,.55-1.05,2.79-4.56,2.82-4.59l12.53-19.76-6.07,1.66c-.48,.13-.96,.2-1.41,.2-1.2,0-2.27-.46-3.01-1.31-.8-.92-1.13-2.2-.94-3.62l.58-4.39c.37-2.69,2.31-4.94,4.83-5.63l23.6-6.46c.51-.14,1.01-.21,1.49-.21,1.21,0,2.27,.46,3,1.3,.79,.91,1.12,2.2,.92,3.63l-.46,3.48c-.35,2.46-1.19,4.71-2.51,6.72l-12.73,19.98,6.11-1.67c.48-.13,.95-.2,1.4-.2,1.17,0,2.21,.45,2.94,1.26,.81,.89,1.17,2.17,1.02,3.59l-.53,4.25c-.38,2.73-2.46,5.18-4.95,5.86l-21.77,5.97s-.79,.03-1.03,.03Z"/><path class="cls-6" d="M69.05,142.26c-1.2,0-2.28-.47-3.03-1.33-.82-.95-1.17-2.26-.97-3.71l.52-4.12c.37-2.69,2.45-5.11,4.95-5.8l.65-.18,2.29-18.08c-.1,0-.2,0-.3,0-1.21,0-2.27-.46-3-1.3-.79-.91-1.12-2.2-.92-3.63l.58-4.38c.37-2.69,2.34-4.95,4.89-5.65l15.99-4.38c.48-.13,.96-.2,1.41-.2,1.2,0,2.27,.46,3.01,1.31,.8,.92,1.13,2.2,.94,3.62l-.58,4.38c-.37,2.68-2.31,4.94-4.83,5.63l-.77,.21-2.29,18.08c.08,0,.17,0,.25,0,1.15,0,2.19,.45,2.92,1.27,.84,.93,1.22,2.27,1.07,3.76l-.53,4.14c-.38,2.73-2.38,5.09-4.89,5.78l-15.99,4.38c-.46,.13-.92,.19-1.36,.19Z"/><path class="cls-6" d="M94.25,135.34c-1.18,0-2.21-.44-2.91-1.25-.54-.62-1.13-1.73-.88-3.54l4.82-37.95c.44-2.82,2.15-4.74,4.83-5.47l4.53-1.24c.66-.18,1.25-.27,1.8-.27,1.4,0,2.27,.58,2.78,1.11,1.81-1.91,4.39-3.82,7.97-4.8,1.37-.37,2.67-.56,3.85-.56,2.46,0,4.5,.79,6.05,2.31,.35-.49,.74-1.01,1.18-1.54,2.1-2.6,5.5-4.74,9.1-5.73,1.42-.39,2.75-.59,3.96-.59,2.95,0,5.33,1.18,6.88,3.4,2,2.68,2.7,6.47,2.09,11.52l-3.26,25.78c-.38,2.84-2.36,5.21-4.95,5.91l-5.87,1.61c-.48,.13-.95,.2-1.4,.2h0c-1.19,0-2.25-.47-2.99-1.31-.83-.95-1.17-2.3-.97-3.79l2.96-23.17c.3-2.2,.1-3.15-.02-3.48-.1,.01-.22,.03-.38,.08-1.12,.31-1.48,.64-1.8,1.19-.65,1.03-.69,1.13-1.2,2.38l-.07,.18c-.32,1.06-.53,2.12-.64,3.15l-2.86,22.64c-.37,2.8-2.36,5.15-4.95,5.86l-5.87,1.61c-.48,.13-.95,.2-1.4,.2-1.19,0-2.25-.47-2.99-1.31-.83-.95-1.17-2.3-.97-3.79l2.96-23.17c.24-2.2,.02-3.14-.1-3.46-.08,.01-.17,.03-.3,.06-2.53,.69-3.28,4.1-3.49,5.53l-3.14,24.38c-.44,2.85-2.13,4.73-4.89,5.49l-5.93,1.62c-.55,.15-1.07,.23-1.57,.23Z"/><path class="cls-6" d="M72.56,78.87c-1.44,0-2.3-.62-2.76-1.14-.72-.8-1.01-1.87-.87-3.19l.47-3.76c.15-1.35,.87-3.72,3.97-4.91l1.14-9.01c-.93-.21-1.53-.68-1.9-1.1-.5-.57-1.06-1.57-.88-3.17l.47-3.64c.36-2.63,2.08-4.48,4.83-5.24l11.16-3.06c.63-.17,1.2-.26,1.73-.26,1.5,0,2.38,.66,2.86,1.21,.5,.58,1.06,1.62,.82,3.3l-.46,3.58c-.33,2.33-1.73,4.04-3.97,4.9l-1.13,8.94c.98,.19,1.6,.68,1.97,1.11,.72,.83,.99,1.94,.8,3.29l-.46,3.63c-.37,2.6-2.06,4.43-4.77,5.17l-11.16,3.06c-.69,.19-1.29,.28-1.85,.28Z"/><path class="cls-6" d="M37.12,101.27c-1.18,0-2.25-.47-3-1.33-.85-.97-1.2-2.33-1-3.83l4.5-35.47,.33-3.75c.14-1.54,1.13-2.74,2.65-3.21l1.89-.48h0s.14-.04,.27-.08l11.88-3.29c2.86-.78,5.28-1.16,7.4-1.16,3.93,0,10.54,1.52,10.54,11.7,0,6.19-2.78,11.79-8.26,16.69,.76,.41,1.85,.71,3.58,.71,2.22,0,5.11-.5,8.84-1.52,1.58-.43,3.56-1.12,6.04-2.1,.75-.3,1.43-.44,2.07-.44,1.04,0,1.97,.4,2.62,1.12,.76,.85,1.07,2.02,.92,3.49l-.59,4.62c-.34,2.64-1.84,4.62-4.33,5.72-1.9,.88-4.7,1.83-8.52,2.88-4.95,1.36-8.89,2.01-12.04,2.01-1.07,0-2.06-.08-2.94-.24-3.6-.64-6.56-2.2-8.8-4.63l-1.1-1.17-.76,6.02c-.38,2.84-2.36,5.21-4.94,5.92l-5.93,1.62c-.44,.12-.88,.18-1.31,.18Zm15.12-31.05l.6-.16c1.04-.29,4.45-1.49,4.45-4.96,0-.63,0-.77-.86-.77-.45,0-1.01,.09-1.62,.25l-1.93,.53-.65,5.1Z"/></g><g><path class="cls-9" d="M68.81,104.32l.46-3.49c.23-1.69-.7-2.65-2.5-2.15l-23.6,6.46c-1.69,.46-2.91,2.01-3.14,3.7l-.58,4.4c-.23,1.69,.76,2.63,2.44,2.17l11.86-3.25-15.76,24.84c-.4,.61-2.44,3.84-2.73,4.46,0,0-4.3,7.01,4.47,6.62l21.52-5.91c1.69-.46,3.02-2.22,3.25-3.91l.52-4.2c.17-1.67-.76-2.63-2.44-2.17l-11.92,3.26,15.99-25.08c1.16-1.77,1.86-3.7,2.15-5.75Z"/><path class="cls-2" d="M39.07,146.49c-1.65,0-2.78-.34-3.11-.93-.45-.81,.21-2.54,.66-3.28,.3-.6,2.1-3.48,2.71-4.42l17.97-28.34-15.84,4.33c-.18,.05-.31,.06-.38,.06,0,0-.01,0-.02,0-.04,0-.09-.15-.04-.48l.58-4.4c.15-1.11,.97-2.09,1.98-2.37l23.6-6.46c.22-.06,.37-.07,.45-.07h.01s.08,.17,.03,.47l-.47,3.5c-.26,1.85-.9,3.57-1.9,5.08l-18.23,28.59,15.91-4.36c.18-.05,.3-.06,.37-.06,0,0,0,0,.01,0,.03,0,.1,.16,.06,.54l-.52,4.17c-.16,1.13-1.1,2.29-2.09,2.56l-21.34,5.86c-.15,0-.29,0-.43,0Z"/><path class="cls-9" d="M73.8,76.35l11.16-3.06c1.8-.49,2.85-1.59,3.08-3.22l.46-3.66c.23-1.63-.64-2.14-2.5-1.64l-.64,.18,1.69-13.34,.7-.19c1.8-.49,2.85-1.59,3.08-3.22l.47-3.61c.23-1.63-.7-2.19-2.5-1.69l-11.16,3.06c-1.86,.51-2.91,1.61-3.14,3.29l-.47,3.61c-.17,1.5,.76,2.11,2.56,1.62l.58-.16-1.69,13.34-.64,.17c-1.92,.53-2.97,1.63-3.14,3.24l-.47,3.72c-.17,1.61,.7,2.07,2.56,1.56Z"/><path class="cls-2" d="M73.29,71.27c.07-.67,.36-1.45,1.98-1.9l1.67-.45,2.12-16.77-2.89,.79c-.24,.07-.42,.1-.55,.11l.46-3.59c.1-.72,.41-1.53,1.98-1.96l11.16-3.06c.21-.06,.38-.09,.5-.1,0,0-.47,3.66-.47,3.66-.09,.65-.4,1.47-1.92,1.89l-1.73,.47-2.12,16.76,2.94-.8c.21-.06,.37-.09,.5-.11l-.46,3.67c-.09,.64-.4,1.46-1.92,1.88l-11.16,3.06c-.23,.06-.41,.1-.55,.12l.46-3.67Z"/><path class="cls-9" d="M93.75,94.13c.23-1.69-.76-2.63-2.44-2.17l-15.99,4.38c-1.68,.46-2.96,2.03-3.2,3.71l-.58,4.39c-.23,1.69,.7,2.65,2.5,2.16l2.15-.59-2.91,22.95-2.15,.59c-1.69,.46-3.02,2.16-3.26,3.85l-.52,4.15c-.23,1.69,.76,2.75,2.44,2.29l15.99-4.38c1.69-.46,2.96-2.14,3.2-3.83l.52-4.09c.17-1.67-.7-2.83-2.38-2.36l-2.27,.62,2.91-22.95,2.27-.62c1.69-.46,2.91-2.01,3.14-3.7l.58-4.4Z"/><path class="cls-2" d="M69.05,138.34c-.07,0-.1-.01-.1-.01,0-.01-.06-.2,0-.57l.53-4.16c.15-1.1,1.09-2.24,2.09-2.51l3.18-.87,3.34-26.38-4.46,1.22c-.22,.06-.37,.07-.45,.07h-.01s-.07-.17-.03-.47l.58-4.4c.15-1.1,1.01-2.1,2.04-2.38l15.99-4.38c.18-.05,.31-.06,.38-.06,0,0,.01,0,.02,0,.04,0,.09,.15,.04,.48l-.58,4.4c-.15,1.11-.97,2.09-1.98,2.37l-3.3,.9-3.34,26.38,4.58-1.25c.14-.04,.23-.05,.28-.05,.05,.01,.14,.25,.09,.71l-.52,4.05c-.16,1.12-1.05,2.23-2.04,2.5l-15.99,4.38c-.16,.04-.26,.05-.33,.05Z"/><path class="cls-9" d="M146.31,80.55c-1.63-2.34-4.42-2.96-8.31-1.9-3.31,.91-6.22,2.86-7.91,4.95-1.63,2.01-2.44,3.45-2.85,4.55-1.51-3.93-4.65-5.28-9.42-3.97-7.32,2-9.88,8.5-10,8.88l-.29,.08,.35-2.88c.29-1.99-.58-2.68-2.62-2.12l-4.53,1.24c-1.8,.49-2.85,1.65-3.14,3.53l-4.82,37.97c-.23,1.69,.64,2.49,2.44,2l5.93-1.62c1.86-.51,2.91-1.67,3.2-3.54l3.14-24.4c.52-3.68,2.21-6.64,5.17-7.45,2.73-.75,3.84,1.21,3.32,5.94l-2.97,23.2c-.23,1.69,.64,2.84,2.44,2.35l5.87-1.61c1.8-.49,3.02-2.16,3.26-3.91l2.85-22.59c.12-1.13,.35-2.36,.76-3.69,.64-1.57,.7-1.76,1.45-2.95,.75-1.31,1.8-1.89,3.2-2.27,2.85-.78,3.95,1.18,3.31,5.94l-2.96,23.2c-.23,1.69,.64,2.84,2.44,2.35l5.87-1.61c1.8-.49,3.02-2.22,3.25-3.97l3.26-25.77c.52-4.32,0-7.66-1.69-9.92Z"/><path class="cls-2" d="M94.32,131.42c0-.08,0-.19,.02-.33l4.83-37.99c.19-1.19,.78-1.86,1.98-2.19l4.53-1.24c.3-.08,.51-.12,.65-.12,0,.11,0,.27-.04,.48l-.64,5.27,3.43-.93,.26-.85s2.24-5.99,8.89-7.81c1.03-.28,1.98-.43,2.82-.43,2.3,0,3.79,1.09,4.69,3.43l1.52,3.95,1.47-3.96c.41-1.1,1.28-2.48,2.59-4.1,1.58-1.96,4.3-3.65,7.09-4.41,1.08-.3,2.07-.45,2.92-.45,1.68,0,2.84,.55,3.66,1.72,1.43,1.91,1.89,4.87,1.41,8.81l-3.26,25.76c-.14,1.05-.9,2.3-2.09,2.63l-5.87,1.61c-.18,.05-.29,.06-.36,.06-.06,0-.13-.23-.08-.65l2.97-23.21c.44-3.27,.12-5.41-1.01-6.7-.69-.79-1.65-1.21-2.78-1.21-.47,0-.99,.08-1.53,.22-1.34,.37-3.02,1.04-4.16,3.01-.75,1.18-.88,1.5-1.44,2.86l-.11,.28c-.46,1.47-.73,2.81-.87,4.13l-2.84,22.55c-.16,1.22-1.02,2.27-2.09,2.57l-5.87,1.61c-.18,.05-.29,.06-.36,.06-.06,0-.13-.23-.08-.65l2.97-23.21c.37-3.32,0-5.44-1.13-6.72-.69-.77-1.63-1.17-2.73-1.17-.46,0-.95,.07-1.46,.21-3.36,.92-5.67,4.11-6.33,8.76l-3.14,24.43c-.19,1.21-.78,1.86-2.04,2.21l-5.93,1.62c-.21,.06-.36,.08-.46,.08Z"/><path class="cls-9" d="M92.44,83.78l5.93-1.62c1.86-.51,2.91-1.67,3.2-3.54l3.14-24.4c.52-3.68,2.21-6.64,5.17-7.45,2.73-.75,3.84,1.21,3.32,5.94l-2.97,23.2c-.23,1.69,.64,2.84,2.44,2.35l5.87-1.61c1.8-.49,3.02-2.16,3.26-3.91l2.85-22.59c.12-1.13,.35-2.36,.76-3.69,.64-1.57,.7-1.76,1.45-2.95,.75-1.31,1.8-1.89,3.2-2.27,2.85-.78,3.95,1.18,3.31,5.94l-2.96,23.2c-.23,1.69,.64,2.84,2.44,2.35l5.87-1.61c1.8-.49,3.02-2.22,3.25-3.97l3.26-25.77c.52-4.32,0-7.66-1.69-9.92-1.63-2.34-4.42-2.96-8.31-1.9-3.31,.91-6.22,2.86-7.91,4.95-1.63,2.01-2.44,3.45-2.85,4.55-1.51-3.93-4.65-5.28-9.42-3.97-7.32,2-9.88,8.5-10,8.88l-.29,.08,.35-2.88c.29-1.99-.58-2.68-2.62-2.12l-4.53,1.24c-1.8,.49-2.85,1.65-3.14,3.53l-4.82,37.97c-.23,1.69,.64,2.49,2.44,2Z"/><path class="cls-2" d="M91.55,82.32c0-.08,0-.19,.02-.33l4.83-37.99c.19-1.19,.78-1.86,1.98-2.19l4.53-1.24c.3-.08,.51-.12,.65-.12,0,.11,0,.27-.04,.47l-.64,5.29,3.43-.95,.26-.84s2.25-5.99,8.89-7.81c1.03-.28,1.98-.43,2.82-.43,2.3,0,3.79,1.09,4.69,3.43l1.52,3.95,1.47-3.97c.41-1.1,1.28-2.48,2.59-4.1,1.58-1.96,4.3-3.65,7.09-4.41,1.08-.3,2.07-.45,2.92-.45,1.68,0,2.84,.55,3.66,1.72,1.43,1.92,1.89,4.87,1.41,8.81l-3.26,25.76c-.14,1.05-.9,2.3-2.09,2.62l-5.87,1.61c-.18,.05-.3,.06-.37,.06-.06,0-.13-.23-.07-.65l2.97-23.21c.44-3.27,.12-5.4-1.01-6.69-.69-.79-1.65-1.21-2.78-1.21-.48,0-.99,.08-1.53,.22-1.34,.36-3.02,1.04-4.16,3.01-.75,1.18-.88,1.5-1.44,2.87l-.11,.27c-.46,1.47-.73,2.81-.87,4.13l-2.84,22.55c-.16,1.22-1.02,2.27-2.09,2.57l-5.87,1.61c-.18,.05-.3,.06-.36,.06-.06,0-.13-.23-.08-.65l2.97-23.21c.37-3.32,0-5.44-1.13-6.71-.69-.77-1.63-1.17-2.73-1.17-.46,0-.95,.07-1.46,.21-3.36,.92-5.67,4.11-6.33,8.76l-3.14,24.43c-.19,1.21-.78,1.86-2.04,2.21l-5.93,1.62c-.21,.06-.36,.08-.46,.09Z"/><path class="cls-9" d="M37.81,98.85l5.93-1.62c1.8-.49,3.02-2.22,3.25-3.97l1.34-10.63,.23-.06,4.3,4.56c1.92,2.08,4.42,3.37,7.5,3.92,3.08,.55,7.73-.03,13.95-1.73,3.66-1,6.4-1.92,8.2-2.77,1.74-.77,2.73-2.08,2.96-3.88l.58-4.57c.17-1.67-.52-2.52-2.44-1.77-2.39,.94-4.48,1.69-6.28,2.19-8.37,2.29-12.96,2.1-15.58-.43l-1.16-.96c6.45-4.9,9.65-10.47,9.65-16.74,0-8.99-5.41-10.93-15-8.3l-11.84,3.27c-.1,.03-.25,.07-.35,.1l-1.78,.44c-.63,.19-.96,.62-1.01,1.19l-.34,3.84-4.51,35.49c-.23,1.69,.7,2.88,2.38,2.42Zm12.96-35.56l3.43-.94c3.26-.89,5.41-.03,5.41,2.75,0,3.65-2.62,6.23-6.16,7.2l-3.95,1.08,1.28-10.09Z"/><path class="cls-2" d="M37.04,97.34s-.1-.24-.04-.7l4.51-35.51,.33-3.72,1.6-.4,12.23-3.39c2.48-.68,4.62-1.02,6.36-1.02,3.27,0,6.62,.93,6.62,7.79,0,5.8-2.95,10.86-9.02,15.46l-1.61,1.22,2.72,2.24c1.63,1.59,4,2.4,7.14,2.4,2.57,0,5.8-.54,9.87-1.66,1.75-.48,3.8-1.19,6.45-2.24,.11-.04,.2-.07,.28-.1,0,.06,0,.14-.02,.22l-.58,4.53c-.16,1.25-.8,2.09-2.02,2.62-1.74,.81-4.42,1.71-7.98,2.69-4.55,1.24-8.25,1.88-11,1.88-.84,0-1.6-.06-2.25-.17-2.77-.49-4.93-1.62-6.61-3.43l-4.98-5.28-2.18,.6-1.47,11.69c-.14,1.02-.85,2.29-2.09,2.62l-5.93,1.62c-.13,.04-.22,.04-.27,.04s-.07,0-.07,0Zm19.39-36.93c-.8,0-1.69,.13-2.65,.39l-4.46,1.22-1.71,13.52,6.26-1.72c4.53-1.24,7.34-4.59,7.34-8.74,0-2.89-1.83-4.69-4.78-4.69Z"/></g></g><g><path class="cls-7" d="M63.85,155.52c-.48,1.1-1.26,1.25-2.33,.77l-4.03-1.76,.96-2.19,3.24,1.42,.67-1.53-1.58-.69c-1.35-.59-1.37-1.38-1.01-2.22l1.21-2.77c.49-1.14,1.27-1.31,2.36-.84l3.79,1.66-.96,2.19-3-1.31-.64,1.46,1.56,.68c1.15,.5,1.48,1.22,.98,2.37l-1.21,2.77Z"/><path class="cls-7" d="M73.6,158.47c-.31,1.12-1.02,1.43-2.17,1.11l-3.39-.94c-1.09-.3-1.6-.92-1.29-2.07l1.91-6.88c.3-1.07,1.02-1.44,2.17-1.12l3.39,.94c1.1,.31,1.6,.93,1.28,2.08l-1.91,6.88Zm-2.4-1.44l1.51-5.44-1.65-.46-1.51,5.44,1.65,.46Z"/><path class="cls-7" d="M83.91,160.02c-.14,1.11-.84,1.55-2,1.41l-5.26-.66,1.31-10.36,5.26,.66c1.1,.14,1.73,.68,1.58,1.87l-.89,7.08Zm-2.58-1.08l.71-5.6-1.71-.22-.71,5.6,1.71,.22Z"/><path class="cls-7" d="M94.29,161.71l-2.69,.05-.05-2.81-1.72,.03,.05,2.81-2.69,.05-.15-8.72c-.02-1.24,.62-1.72,1.81-1.74l5.26-.09,.18,10.43Zm-2.78-5.12l-.05-2.87-1.72,.03,.05,2.87,1.72-.03Z"/><path class="cls-7" d="M109.57,159.02l-2.63,.62-.86-3.67-1.49,.35,.86,3.67-2.63,.62-2.4-10.17,2.63-.62,.99,4.19,.08-.02,.42-4.52,2.61-.62-.61,4.86,.16-.05c.75-.18,1.66,.27,1.88,1.18l.99,4.18Z"/><path class="cls-7" d="M119.32,155.43l-2.5,.98-1.03-2.61-1.6,.63,1.03,2.61-2.5,.98-3.19-8.11c-.45-1.16-.02-1.83,1.09-2.26l4.89-1.92,3.82,9.7Zm-4.39-3.82l-1.05-2.67-1.6,.63,1.05,2.67,1.6-.63Z"/><path class="cls-7" d="M130.56,143.88c.69,1.03,.4,1.76-.59,2.42l-2.12,1.43,1.43,2.12-2.23,1.5-5.82-8.65,4.35-2.93c.99-.66,1.79-.63,2.48,.39l2.5,3.71Zm-2.62,.93l-1.73-2.58-1.42,.95,1.73,2.58,1.42-.95Z"/><path class="cls-7" d="M137.41,143.65l-2.05,1.74-6.76-7.96,2.05-1.74,6.76,7.96Z"/><path class="cls-7" d="M145.17,135.84l-1.53,1.64-5.37-1.25,3.5,3.26-1.84,1.97-7.63-7.12,1.6-1.72,5.13,1.18-3.34-3.11,1.84-1.97,7.63,7.12Z"/><path class="cls-7" d="M151.16,127.55l-2.77,4.01c-.67,.97-1.4,1.24-2.38,.56l-5.82-4.02c-1.02-.7-1.04-1.5-.37-2.47l2.25-3.25,1.96,1.36-1.74,2.55,4.64,3.2,.75-1.09-2.49-1.72,1.53-2.21,4.45,3.08Z"/></g><g><path class="cls-7" d="M29.14,70.74c1.21,.32,1.49,1.08,1.19,2.24l-.81,3.05c-.31,1.16-.92,1.67-2.13,1.35l-1.93-.51,.69-2.63,1.25,.33,.36-1.38-7.87-2.07,.7-2.63,8.55,2.25Z"/><path class="cls-7" d="M34.06,63.18l-2.4,5.63-9.7-4.14,2.4-5.63,2.22,.95-1.34,3.13,1.48,.63,1.34-3.13,2.21,.95-1.34,3.13,1.57,.67,1.34-3.13,2.22,.95Z"/><path class="cls-7" d="M38.39,55.75l-3.19,5.23-9.01-5.49,3.18-5.23,2.07,1.25-1.77,2.91,1.38,.84,1.77-2.91,2.05,1.25-1.77,2.91,1.46,.89,1.77-2.91,2.07,1.26Z"/><path class="cls-7" d="M44.27,48.37l-1.74,2.09-2.73-2.28-.99,1.19,2.73,2.27-1.74,2.09-8.1-6.76,3.28-3.94c.77-.92,1.56-1.12,2.52-.32l2.08,1.73c.61,.51,.67,1.04,.42,1.62h.02c.44-.39,.97-.45,1.58,.06l2.68,2.23Zm-6.32-1.73l-1.67-1.39-.99,1.18,1.67,1.4,.99-1.19Z"/><path class="cls-7" d="M51.42,41.83l-2.04,1.79-1.87-2.13-1.31,1.15,1.87,2.13-2.04,1.79-5.8-6.62c-.82-.94-.64-1.73,.26-2.52l4-3.5,6.94,7.92Zm-5.48-2.14l-1.91-2.18-1.31,1.15,1.91,2.18,1.31-1.15Z"/><path class="cls-7" d="M63.76,34.38l-2.41,1.26-1.77-3.36-1.37,.72,1.77,3.37-2.41,1.27-4.91-9.34,2.41-1.27,2.02,3.85,.07-.04-.72-4.53,2.4-1.26,.63,4.91,.15-.09c.69-.36,1.69-.16,2.13,.68l2.01,3.83Z"/><path class="cls-7" d="M72.67,31.16l-2.58,.87-.91-2.69-1.65,.56,.91,2.69-2.58,.87-2.83-8.35c-.4-1.19,.07-1.85,1.21-2.24l5.04-1.71,3.38,10Zm-4.25-4.08l-.93-2.75-1.65,.56,.93,2.75,1.65-.56Z"/><path class="cls-7" d="M86.11,20.9l-2.25,.21,.76,8.09-2.71,.25-.76-8.09-2.25,.21-.22-2.41,7.2-.67,.22,2.4Z"/><path class="cls-7" d="M91.85,29.12l-2.72-.06,.25-10.54,2.72,.07-.26,10.54Z"/><path class="cls-7" d="M102.13,30.38l-2.24-.34-2.01-5.2-.73,4.78-2.69-.41,1.6-10.43,2.35,.36,1.94,4.96,.7-4.56,2.69,.41-1.6,10.43Z"/><path class="cls-7" d="M111.05,33.12l-4.69-1.53c-1.13-.37-1.61-1-1.23-2.15l2.22-6.8c.39-1.19,1.15-1.44,2.29-1.07l3.8,1.24-.75,2.3-2.98-.96-1.77,5.42,1.27,.41,.95-2.91,2.58,.84-1.7,5.21Z"/></g></g><text class="cls-3" transform="translate(149.09 118.85)"><tspan x="0" y="0">TM</tspan></text></g></g></svg>