<?xml version="1.0" encoding="UTF-8"?><svg id="Layer_1" xmlns="http://www.w3.org/2000/svg" viewBox="0 0 180 180"><defs><style>.cls-1{fill:#fff;}.cls-2{fill:#4474b7;}</style></defs><rect class="cls-2" width="180" height="180"/><g><g><polygon class="cls-1" points="111.5 84.03 108.58 95.25 105.88 84.03 101.98 84.03 99 95.25 96.27 84.03 91.48 84.03 96.36 101.44 100.78 101.44 103.73 90.52 106.46 101.44 110.83 101.44 115.89 84.03 111.5 84.03"/><path class="cls-1" d="M126.11,99.34v2.1h4.69v-11.35c0-4.73-3.03-6.46-7.29-6.46s-7.52,1.83-7.82,5.96h4.56c.2-1.5,1.07-2.46,2.96-2.46,2.2,0,2.83,1.13,2.83,3.2v.7h-1.96c-5.33,0-9.06,1.53-9.06,5.59,0,3.66,2.66,5.19,5.83,5.19,2.73,0,4.26-1.07,5.26-2.46Zm-6.36-3c0-1.86,1.63-2.46,4.43-2.46h1.86v1.46c0,1.93-1.63,3.1-3.76,3.1-1.76,0-2.53-.83-2.53-2.1Z"/><path class="cls-1" d="M141.21,92.68v.27c0,5.56,3.83,8.85,9.09,8.85,4.76,0,7.76-2.1,8.32-5.86h-4.56c-.3,1.46-1.4,2.43-3.63,2.43-2.63,0-4.19-1.67-4.33-4.56h12.55v-1.33c0-6.22-3.99-8.85-8.49-8.85-5.06,0-8.95,3.56-8.95,9.05Zm12.75-1.83h-7.79c.37-2.46,1.83-3.89,3.99-3.89,2.3,0,3.63,1.26,3.79,3.89Z"/><path class="cls-1" d="M164.81,87.36v-3.33h-4.83v17.41h4.83v-8.72c0-3.33,2.06-4.49,5.62-4.46v-4.49c-2.83,.03-4.53,1.26-5.62,3.6Z"/><path class="cls-1" d="M132.54,96.28v-8.82h0v-3.43h0v-4.58h4.79v4.58h3.66v3.43h-3.66v8.39c0,1.4,.7,2.06,1.93,2.06,.73,0,1.26-.1,1.83-.33v3.73c-.67,.23-1.63,.47-2.93,.47-3.66,0-5.63-1.86-5.63-5.49Z"/></g><g><path class="cls-1" d="M9.56,95.98h4.49c.2,1.56,.97,2.46,3.06,2.46,1.86,0,2.73-.7,2.73-1.9s-1.03-1.7-3.53-2.06c-4.63-.7-6.42-2.03-6.42-5.43,0-3.63,3.33-5.43,6.89-5.43,3.86,0,6.76,1.4,7.19,5.39h-4.43c-.27-1.43-1.06-2.1-2.73-2.1-1.56,0-2.46,.73-2.46,1.8s.83,1.53,3.36,1.9c4.36,.63,6.76,1.73,6.76,5.46,0,3.76-2.73,5.73-7.32,5.73-4.69,0-7.42-2.06-7.59-5.83Z"/><path class="cls-1" d="M25.71,84.03h4.83v2.66c.87-1.63,2.73-3.06,5.33-3.06,2.3,0,4.03,.97,4.86,3.03,1.4-2.1,3.66-3.03,5.86-3.03,3.23,0,5.73,2.03,5.73,6.66v11.15h-4.79v-10.62c0-2.23-1-3.23-2.73-3.23-1.86,0-3.36,1.2-3.36,3.56v10.29h-4.79v-10.62c0-2.23-1.03-3.23-2.73-3.23-1.87,0-3.36,1.2-3.36,3.56v10.29h-4.83v-17.41Z"/><path class="cls-1" d="M53.47,96.61c0-4.06,3.73-5.59,9.05-5.59h1.96v-.7c0-2.06-.63-3.2-2.83-3.2-1.9,0-2.76,.97-2.96,2.46h-4.56c.3-4.13,3.56-5.96,7.82-5.96,4.26,0,7.29,1.73,7.29,6.46v11.35h-4.69v-2.1c-1,1.4-2.53,2.46-5.26,2.46-3.16,0-5.83-1.53-5.83-5.19Zm11.02-1.27v-1.46h-1.86c-2.8,0-4.43,.6-4.43,2.46,0,1.27,.76,2.1,2.53,2.1,2.13,0,3.76-1.16,3.76-3.1Z"/><path class="cls-1" d="M71.05,84.03h4.83v3.33c1.1-2.33,2.8-3.56,5.62-3.6v4.49c-3.56-.03-5.62,1.13-5.62,4.46v8.72h-4.83v-17.41Z"/><path class="cls-1" d="M82.5,96.28v-8.82h0v-3.43h0v-4.58h4.79v4.58h3.66v3.43h-3.66v8.39c0,1.4,.7,2.06,1.93,2.06,.73,0,1.26-.1,1.83-.33v3.73c-.67,.23-1.63,.47-2.93,.47-3.66,0-5.63-1.86-5.63-5.49Z"/><g><path class="cls-1" d="M73.86,81.85c-.16,.12-.42,.23-.67,.22-.72-.02-1.02-.61-1.02-1.26,0-.27,.08-.72,.27-.92,.21-.23,.43-.33,.76-.33,.23,0,.37,.06,.51,.18,.02,.02,.1,.08,.15,.17v-.42c-.18-.07-.49-.13-.64-.13-.69,0-1.63,.25-1.63,1.48s1,1.39,1.55,1.36c.26-.01,.56-.05,.72-.13v-.24Z"/><path class="cls-1" d="M67.63,79.45v2.74h1.47v-.27c-.33,.05-.92,.06-.92,.06,0,0-.09-1.5,0-2.54h-.55Z"/><path class="cls-1" d="M78.65,81.98c.22,.16,.53,.24,.84,.24s.6-.06,.82-.22c.32-.25,.39-.7,.39-1.03,0,0-.02-1.28,0-1.52h-.29c0,.23,.04,1.35,.04,1.35,0,.34-.07,.82-.21,.96-.14,.15-.32,.27-.57,.27s-.44-.04-.59-.19c-.14-.14-.21-.4-.21-.74,0,0,.02-1.39,.06-1.65h-.59c0,.26,.03,1.76,.03,1.76,0,.36,.06,.58,.3,.77Z"/><path class="cls-1" d="M71.07,82.19h.67c-.31-.56-1-2.43-1.11-2.74h-.27c-.12,.33-.92,2.37-1.11,2.74h.29c.02-.16,.26-.79,.26-.79h1.03s.21,.65,.24,.79Zm-1.18-1.03l.43-1.08,.43,1.08h-.85Z"/><path class="cls-1" d="M67.28,82.03v-1.05c-.13,0-.49,0-.54,0,.04,.13,.03,.96,.03,.96-.16,.07-.22,.13-.54,.12-.72-.02-.99-.59-.99-1.25,0-.27,.08-.72,.26-.92,.19-.2,.4-.32,.79-.32,.23,0,.54,.12,.7,.23,.09,.06,.21,.18,.28,.28v-.49c-.11-.05-.23-.09-.33-.12-.12-.04-.45-.1-.65-.1-.69,0-1.63,.25-1.63,1.48,0,1.27,1,1.39,1.55,1.36,.24-.01,.51-.03,.76-.09,.06-.01,.19-.06,.31-.1Z"/><path class="cls-1" d="M75.62,78.2c-.1,.11-.57,.03-.69,.05-.22,.03-.3,.1-.37,.18-.07,.08-.11,.16-.11,.27s.02,.21,.1,.28c.08,.07,.15,.12,.27,.12s.26-.04,.36-.09c.12-.07,.4-.3,.44-.8Z"/><path class="cls-1" d="M76.11,82.19c.02-.16,.26-.79,.26-.79h1.03s.21,.65,.24,.79h.67c-.32-.56-1-2.43-1.11-2.74h-.27c-.12,.33-.92,2.37-1.11,2.74h.29Zm.36-1.03l.43-1.08,.43,1.08h-.86Z"/><path class="cls-1" d="M75.62,82.19v-.27c-.2,.04-.82,.06-.88,.05-.02-.12-.01-1.05,0-1.1,.1-.02,.72,0,.88,.02v-.27c-.17,.02-.8,.05-.88,.02-.02-.09-.01-.88,0-.93,.07-.01,.68,0,.88,.03v-.29h-1.4v2.75c.22,0,1.17,0,1.4,0Z"/></g></g><path class="cls-1" d="M166.15,99.78c0-.96,.76-1.73,1.73-1.73,.98,0,1.73,.76,1.73,1.72s-.76,1.72-1.73,1.72c-.96,0-1.73-.74-1.73-1.72Zm3.15,0c0-.85-.59-1.44-1.42-1.44-.83,0-1.42,.6-1.42,1.45s.62,1.43,1.42,1.43c.8,0,1.42-.59,1.42-1.44Zm-2.01-.87h.6c.4,0,.66,.16,.66,.52h0c0,.26-.15,.41-.35,.47l.45,.72h-.39l-.41-.66h-.18v.66h-.37v-1.71Zm.59,.79c.2,0,.3-.09,.3-.25h0c0-.19-.11-.25-.3-.25h-.22v.5h.22Z"/></g></svg>